{
  "accessors": [
    {
      "name": "tower_1_0_positions",
      "componentType": 5126,
      "count": 1256,
      "min": [
        -28.19379997253418,
        0.637499988079071,
        -23.82309913635254
      ],
      "max": [
        28.19379997253418,
        61.647098541259766,
        23.82309913635254
      ],
      "type": "VEC3",
      "bufferView": 0,
      "byteOffset": 0
    },
    {
      "name": "tower_1_0_normals",
      "componentType": 5126,
      "count": 1256,
      "min": [
        -1,
        -1,
        -1
      ],
      "max": [
        1,
        1,
        1
      ],
      "type": "VEC3",
      "bufferView": 1,
      "byteOffset": 0
    },
    {
      "name": "tower_1_0_texcoords",
      "componentType": 5126,
      "count": 1256,
      "min": [
        0.016899999231100082,
        0.014100000262260437
      ],
      "max": [
        0.9822999835014343,
        0.9861000180244446
      ],
      "type": "VEC2",
      "bufferView": 2,
      "byteOffset": 0
    },
    {
      "name": "tower_1_0_indices",
      "componentType": 5123,
      "count": 3342,
      "min": [
        0
      ],
      "max": [
        1255
      ],
      "type": "SCALAR",
      "bufferView": 3,
      "byteOffset": 0
    }
  ],
  "asset": {
    "generator": "obj2gltf",
    "version": "2.0"
  },
  "buffers": [
    {
      "name": "tower",
      "byteLength": 363164,
      "uri": "data:application/octet-stream;base64,"
    }
  ],
  "bufferViews": [
    {
      "name": "bufferView_0",
      "buffer": 0,
      "byteLength": 15072,
      "byteOffset": 0,
      "byteStride": 12,
      "target": 34962
    },
    {
      "name": "bufferView_1",
      "buffer": 0,
      "byteLength": 15072,
      "byteOffset": 15072,
      "byteStride": 12,
      "target": 34962
    },
    {
      "name": "bufferView_2",
      "buffer": 0,
      "byteLength": 10048,
      "byteOffset": 30144,
      "byteStride": 8,
      "target": 34962
    },
    {
      "name": "bufferView_3",
      "buffer": 0,
      "byteLength": 6684,
      "byteOffset": 40192,
      "target": 34963
    },
    {
      "buffer": 0,
      "byteOffset": 46876,
      "byteLength": 316288
    }
  ],
  "images": [
    {
      "name": "tower_diffuse",
      "mimeType": "image/jpeg",
      "bufferView": 4
    }
  ],
  "materials": [
    {
      "name": "tower",
      "pbrMetallicRoughness": {
        "baseColorTexture": {
          "index": 0
        },
        "baseColorFactor": [
          1,
          1,
          1,
          1
        ],
        "metallicFactor": 0,
        "roughnessFactor": 0.99
      },
      "emissiveFactor": [
        0,
        0,
        0
      ],
      "alphaMode": "OPAQUE",
      "doubleSided": false
    }
  ],
  "meshes": [
    {
      "name": "tower_1",
      "primitives": [
        {
          "attributes": {
            "POSITION": 0,
            "NORMAL": 1,
            "TEXCOORD_0": 2
          },
          "indices": 3,
          "material": 0,
          "mode": 4
        }
      ]
    }
  ],
  "nodes": [
    {
      "name": "tower",
      "mesh": 0
    }
  ],
  "samplers": [
    {
      "wrapS": 10497,
      "wrapT": 10497
    }
  ],
  "scene": 0,
  "scenes": [
    {
      "nodes": [
        0
      ]
    }
  ],
  "textures": [
    {
      "name": "tower_diffuse",
      "sampler": 0,
      "source": 0
    }
  ]
}
